<?xml version="1.0" encoding="utf-8"?>
<!-- Generator: Adobe Illustrator 27.2.0, SVG Export Plug-In . SVG Version: 6.00 Build 0)  -->
<svg version="1.1" id="Layer_1" xmlns="http://www.w3.org/2000/svg" xmlns:xlink="http://www.w3.org/1999/xlink" x="0px" y="0px"
	 viewBox="0 0 174.4 159.7" style="enable-background:new 0 0 174.4 159.7;" xml:space="preserve">
<g>
	<path d="M124.5,144.9c-3,1.1-5.9,1.7-9.1,1.9c-3.5,0.1-6.9-0.3-10.2-1c-3.5-0.8-6.9-2-10.1-3.5c-1.2-0.5-2.4-0.9-3.7-0.8
		c-0.6,0.1-1.1,0.4-1.7,0.7c-0.3,0.2-0.3,0.4,0,0.7c0.1,0.1,0.2,0.2,0.3,0.3c2.5,2.4,4.7,5.3,7.1,7.8c0.8,0.9,1.9,1.7,2.9,2.5
		c0.4,0.3,0.5,0.6,0.2,1c-0.3,0.4-0.7,0.8-1.1,1.1c-0.2,0.2-0.6,0.1-0.8,0c-2.5-1.1-4-3.2-5.4-5.5c-0.8-1.4-1.7-2.8-2.6-4.1
		c-0.6-0.8-1.5-1.5-2.5-2c-0.8-0.4-1.5-0.4-2.3,0.1c-1.1,0.7-2,1.4-2.8,2.5c-1.7,2.1-3.4,4.2-5.1,6.5c-0.4,0.5-0.8,1.1-1.3,1.5
		c-0.6,0.7-1,0.8-1.9,0.3c-0.4-0.3-0.8-0.6-1.3-0.8c-0.3-0.3-0.3-0.5-0.1-0.8c0.9-0.9,1.9-2,2.8-2.9c2.4-2.1,4.8-4.2,7.1-6.2
		c0.3-0.3,0.8-0.7,1.1-1.1c0.4-0.4,0.3-0.8-0.3-0.9c-0.6-0.2-1.2-0.1-1.7,0.2c-1.4,0.6-2.6,1.4-4,2c-2.8,1.3-5.6,2.4-8.6,3.2
		c-3.2,1-6.5,1.4-9.8,1c-2-0.2-3.9-0.8-5.8-1.6c-0.8-0.3-0.8-0.5-0.2-1c2.2-2,4.8-3.7,7.6-4.8c4.7-2,9.5-2.5,14.5-2.2
		c3.4,0.3,6.6,1,9.7,2.5c0.9,0.4,1.8,0.2,2.7-0.2c3.1-1,6.1-1.9,9.3-2.4c4-0.7,7.9-1,12-0.6c5,0.5,9.6,2.1,13.6,5.4
		c0.4,0.3,0.8,0.8,1.1,1.1C124.4,144.6,124.5,144.8,124.5,144.9z"/>
	<path d="M152.8,64.9c-0.2-1.3-0.3-2.4-0.4-3.6c-0.3-3.5,0-7,0.7-10.4c0.9-4.5,2.5-8.7,5.2-12.4c1.5-2,3.3-3.8,5.3-5.4
		c0.5-0.4,0.7-0.3,0.8,0.3c0.4,3.3,0.8,6.5,0.5,9.9c-0.4,6-2.3,11.6-6.2,16.3c-1.4,1.8-3.1,3.5-5,4.8
		C153.3,64.6,153.1,64.7,152.8,64.9z"/>
	<path d="M144.5,98.4c0.3-0.8,0.7-1.4,1-2.1c1.8-3.3,4-6.3,6.5-9.2c2.7-3.2,5.9-5.8,9.8-7.6c1.4-0.7,3-1.2,4.5-1.6
		c1.4-0.4,2.7-0.8,4.1-1.2c0.2-0.1,0.3,0,0.5,0c0,0.2,0,0.4-0.1,0.6c-0.7,1.4-1.3,2.9-2,4.2c-3.2,5.7-7.6,10.4-13.1,13.8
		c-2.6,1.6-5.5,2.7-8.6,3.1c-0.7,0.1-1.4,0.2-2.1,0.3C144.8,98.5,144.7,98.5,144.5,98.4z"/>
	<path d="M136.1,97.6c0,0.2,0.1,0.3,0.1,0.4c-0.2,2.2-0.2,4.5-0.5,6.7c-0.3,2.5-1.1,4.8-2.1,7.1c-1.3,2.7-2.7,5.4-4.7,7.6
		c-2.3,2.5-4.9,4.8-8,6.6c-0.4,0.3-0.8,0.3-1.3,0.5c-0.3,0.1-0.5,0.1-0.5-0.4c0.3-2.7,0.8-5.4,1.5-8.1c0.8-2.6,1.6-5.3,2.9-7.7
		c2-3.9,4.8-7.3,8.3-9.9c1.1-0.8,2.2-1.6,3.3-2.4C135.5,97.8,135.8,97.8,136.1,97.6z"/>
	<path d="M160.1,96.1c-0.3,0.7-0.5,1.4-0.8,2c-1.6,3.7-3.8,7.1-6.5,10c-2.5,2.8-5.7,4.9-9.1,6.6c-2.6,1.4-5.4,2.4-8.2,3.2
		c-0.7,0.2-1.4,0.3-2.2,0.5c-0.1-0.1-0.1-0.1-0.2-0.2c0.3-0.8,0.6-1.8,0.9-2.6c1.3-2.8,3-5.2,5-7.4c3.1-3.3,6.6-5.9,10.6-8.1
		c2.3-1.3,4.7-2.4,7.1-3.2c0.8-0.3,1.6-0.5,2.5-0.7C159.6,96,159.7,96.1,160.1,96.1z"/>
	<path d="M90.5,137.9c0.3-0.7,0.5-1.4,0.8-2c2-4.5,5.3-8.1,9.1-11.1c2.9-2.4,6-4.2,9.5-5.5c2-0.7,3.9-1.4,5.9-2
		c0.6-0.2,1.2-0.3,2-0.4c-0.3,0.6-0.3,1.1-0.5,1.5c-0.9,2.3-2,4.4-3.7,6.3c-1.1,1.3-2.4,2.4-3.6,3.5c-1.4,1.3-2.5,2.6-4.2,3.6
		c-2.9,1.9-5.9,3.4-9.2,4.6c-1.7,0.6-3.5,1.1-5.3,1.7c-0.3,0.1-0.6,0.1-0.8,0.2C90.6,138,90.5,138,90.5,137.9z"/>
	<path d="M18.5,123.8c2.5-1.1,4.8-2.2,7.4-2.5c2.5-0.3,4.8-0.4,7.3-0.1c6.5,0.8,12.5,3.1,17.8,7c0.3,0.2,0.6,0.4,1,0.8
		c-0.4,0.3-0.8,0.5-1.1,0.7c-1.2,0.6-2.5,0.9-3.8,1c-2.5,0.3-5.1,0.4-7.6,0.4c-2.1,0-4.2-0.4-6.2-0.9c-1.8-0.5-3.6-1-5.3-1.6
		c-3.1-1.1-6-2.5-8.8-4.2C18.9,124.1,18.8,124,18.5,123.8z"/>
	<path d="M55.6,128.1c-0.8-0.4-1.4-0.8-2-1.1c-4.4-2.8-7.6-6.6-10.1-11.1c-1.7-3.1-3.1-6.5-3.8-9.9c-0.5-2.3-1-4.5-1.4-6.8
		c-0.1-0.2,0-0.4-0.1-0.8c0.3,0.1,0.5,0.2,0.8,0.3c1.8,0.8,3.3,2,4.8,3.2c2.7,2.1,4.7,4.8,6.4,7.8c1.4,2.4,2.6,4.9,3.5,7.6
		c1.1,3.2,1.9,6.6,2,10C55.6,127.5,55.6,127.8,55.6,128.1z"/>
	<path d="M140.4,135.1c-1.1,0.3-2.2,0.8-3.3,1.1c-1.5,0.4-3.1,0.9-4.8,1.3c-1.4,0.3-3,0.5-4.5,0.8c-2.8,0.5-5.7,0.5-8.5,0.4
		c-3.9-0.2-7.6-1.3-10.9-3.3c-0.9-0.6-1-0.8-0.1-1.4c1.6-1.2,3.4-2,5.2-2.7c4.5-1.7,9.2-2,13.9-1.3c4.2,0.6,8.2,2,11.8,4.2
		c0.4,0.3,0.7,0.6,1.1,0.8C140.4,135,140.4,135,140.4,135.1z"/>
	<path d="M123.7,127.5c0.2-0.3,0.3-0.4,0.4-0.5c3.1-3.2,6.7-5.6,11-7.1c2.6-0.8,5.3-1.4,8.1-1.7c2.9-0.3,5.8-0.2,8.8,0.1
		c1.4,0.1,2.7,0.4,4,0.6c0.4,0.1,0.5,0.3,0.3,0.6c-0.8,0.8-1.7,1.7-2.6,2.4c-1.9,1.4-3.8,2.7-6,3.7c-1.8,0.8-3.7,1.4-5.5,1.8
		c-3.1,0.7-6.3,1.1-9.5,0.9c-2.5-0.1-5.1-0.4-7.6-0.6C124.5,127.8,124.1,127.6,123.7,127.5z"/>
	<path d="M139.3,104c-0.2-0.6-0.3-1.1-0.4-1.5c-1.4-4.2-1.5-8.4-1.1-12.7c0.3-3.2,1-6.4,2.1-9.4c1.2-3.6,2.7-7,4.4-10.3
		c0.1-0.3,0.3-0.4,0.3-0.7c0.1,0,0.1,0,0.2,0c0.2,0.4,0.4,0.8,0.6,1.2c1.9,4.3,2.3,8.8,1.9,13.4c-0.2,2.3-0.6,4.5-1.2,6.7
		c-1,3.7-2.6,7.1-4.7,10.4c-0.5,0.8-0.9,1.5-1.4,2.3C139.8,103.6,139.6,103.7,139.3,104z"/>
	<path d="M43.7,121c-0.2,0-0.4,0-0.6-0.1c-3.5-0.8-7-1.8-10.2-3.2c-4.1-1.9-7.8-4.2-10.9-7.6c-2.1-2.3-3.7-4.9-4.8-7.8
		c-0.2-0.3-0.1-0.4,0.3-0.4c4.3,0.1,8.4,1.2,12.2,3.3c2.1,1.2,4.1,2.6,5.9,4.2c3.1,2.8,5.6,6.1,7.6,9.9c0.3,0.5,0.4,1,0.7,1.6
		C43.8,120.9,43.8,121,43.7,121z"/>
	<path d="M153.2,37.3c0,3.3-0.4,6.5-1.4,9.7c-0.4,1.6-1.1,3.2-1.6,4.8c-0.2,0.4-0.4,0.3-0.6,0c-0.3-0.4-0.7-0.8-0.8-1.3
		c-0.8-2.1-1.8-4.2-2.5-6.4c-0.6-1.9-1.1-3.8-1.5-5.8c-0.5-2.5-0.7-4.9-0.6-7.4s0.4-4.8,1-7.1c0.4-1.6,0.8-3.2,1.7-4.7
		c0.4-0.7,0.7-0.7,1.1,0c1.5,2.3,2.8,4.8,3.7,7.5C152.7,30,153.2,33.6,153.2,37.3z"/>
	<path d="M165.1,57c0.1,0.6,0.2,1.2,0.2,1.7c-0.2,2-0.3,3.9-0.6,5.8c-0.5,3-1.5,5.7-2.9,8.4c-1.3,2.5-2.9,4.7-4.7,6.8
		c-2,2.3-4.2,4.2-6.5,6c-0.3,0.3-0.7,0.3-1,0.4c-0.1-0.3-0.2-0.7-0.2-1c0.2-2,0.3-3.9,0.6-5.8c0.5-3.2,1.5-6.3,3-9.3
		c2-3.9,4.7-7.2,7.9-10c1.3-1.1,2.6-2,3.9-3C164.8,57.1,164.9,57.1,165.1,57z"/>
	<path d="M81.1,138.1c-1.4-0.3-2.7-0.7-4-1c-3.7-1.1-7.1-3-10-5.5c-3.6-3.1-6.7-6.5-9.1-10.6c-0.4-0.8-0.8-1.4-1.1-2.2
		c-0.2-0.4-0.1-0.6,0.3-0.6c0.7,0,1.3,0.2,2,0.3c2.4,0.3,4.8,1,7,2c2.7,1.3,5.1,3,7.4,4.9c3.7,3.2,6.4,7.1,8.6,11.5
		c0.5,0.9,0.3,1.2-0.8,1.1C81.1,138.1,81.1,138.1,81.1,138.1z"/>
	<path d="M56.2,132.2c2.5-0.1,5.2,0.3,7.9,1c1.3,0.3,2.5,0.7,3.6,1.5c0.9,0.8,0.9,0.8,0,1.5c-1.7,1.2-3.5,2.1-5.4,2.7
		c-1.3,0.3-2.5,0.9-3.8,1.2c-4.3,0.8-8.8,1.3-13.2,0.6c-2.3-0.3-4.5-0.8-6.8-1.2c-0.9-0.2-1.8-0.5-2.6-0.8c-0.4-0.2-0.4-0.3-0.1-0.6
		c1.4-0.8,2.6-1.6,4-2.3c2.4-1.2,4.8-2,7.5-2.6C49.9,132.6,52.7,132.1,56.2,132.2z"/>
	<path d="M25.1,46.2c0,2.6-0.3,5.3-1.1,7.7c-0.3,0.8-0.5,1.4-0.8,2.2c-0.2,0.5-0.3,0.5-0.7,0.1c-0.5-0.7-1.1-1.4-1.6-2.2
		c-2-3-3.4-6.3-4.4-9.8c-0.8-3.1-1.3-6.4-1.1-9.6c0.1-2.1,0.4-4.2,1-6.4c0.3-1.1,0.8-2.2,1.2-3.3c0.1-0.3,0.3-0.4,0.6-0.6
		c0.3,0.3,0.5,0.4,0.7,0.7c1.6,3,3.1,6.1,4.2,9.3c0.8,2.5,1.4,4.9,1.6,7.6C24.9,43.3,25.1,44.8,25.1,46.2z"/>
	<path d="M50.6,28.1c-0.4,0.8-0.8,1.8-1.3,2.6c-1.8,3.2-3.9,6.4-6.3,9.2c-2,2.4-4.2,4.5-6.7,6.1c-1.4,0.9-3,1.5-4.5,2.3
		c-1.5,0.8-3.1,1.4-4.7,2.2c-0.2,0.1-0.3,0.2-0.6,0.3c0.1-0.5,0.2-0.9,0.3-1.3c2.4-6.9,6.3-12.7,12.1-17.2c2.7-2.1,5.9-3.5,9.3-4.2
		c0.8-0.2,1.5-0.2,2.3-0.3C50.5,28,50.5,28,50.6,28.1z"/>
	<path d="M51,4.2c0,1.3,0.1,2.5,0,3.7c-0.3,1.9-0.5,3.7-1,5.4c-1,3.7-2.5,7-4.8,10.1c-1.3,1.8-2.7,3.4-4.4,4.8
		c-1.7,1.4-3.6,2.5-5.4,3.7c-0.3,0.2-0.7,0.3-0.9,0.3c0-0.3-0.2-0.7-0.1-0.9c0.3-1.4,0.6-2.8,0.9-4.2c0.3-1.4,0.8-2.7,1.2-4.1
		c0.8-2.8,2.2-5.4,3.7-7.9c1.8-3.1,4.4-5.6,7.2-7.8c1.1-0.8,2.1-1.9,3.2-2.8C50.6,4.4,50.7,4.3,51,4.2z"/>
	<path d="M34.1,105.6c-0.4-0.5-0.9-0.9-1.4-1.4c-2-3-3.7-6.1-4.9-9.6c-1.2-3.6-1.7-7.2-1.5-11c0.1-2,0.5-4.1,1.2-6
		c0.3-0.8,0.5-1.5,0.8-2.2c0.2-0.6,0.4-0.7,0.8-0.2c1,1.4,2.1,2.6,3,4.1c1.5,2.5,2.4,5.2,3,8.1c0.8,4.1,1,8.2,0.4,12.3
		c-0.3,2-0.7,4-1,6C34.2,105.5,34.2,105.5,34.1,105.6z"/>
	<path d="M28.2,40.4c-1-2.4-1.9-4.6-2.4-7.1c-0.6-2.8-0.9-5.7-0.8-8.6c0.2-5.2,1.4-10,4.2-14.5c0.3-0.5,0.8-1,1.2-1.5
		c0.2-0.2,0.4-0.2,0.6,0.2c0.3,0.8,0.6,1.5,0.8,2.3c0.4,1.7,0.8,3.5,1.3,5.2c0.6,2.8,0.7,5.6,0.5,8.5c-0.2,2.3-0.6,4.6-1.3,6.9
		c-0.8,2.4-1.8,4.7-2.9,6.8c-0.3,0.5-0.5,0.9-0.8,1.4C28.5,40.1,28.4,40.2,28.2,40.4z"/>
	<path d="M150.5,71.4c-1-0.8-2.1-1.4-3.1-2.2c-4.2-3.3-7.3-7.6-9.4-12.4c-1-2.4-1.8-4.9-2.3-7.5c-0.3-1.4-0.5-2.6-0.8-4
		c-0.1-0.3,0.1-0.6,0.1-0.8c0.3,0.1,0.6,0.1,0.8,0.3c2.1,1.2,4.1,2.5,5.9,4.2c2.1,2,4.1,4.3,5.6,7c1.4,2.3,2.2,4.8,2.9,7.5
		c0.6,2.5,0.6,5.1,0.7,7.6c0,0.1,0,0.2,0,0.3C150.7,71.2,150.7,71.3,150.5,71.4z"/>
	<path d="M28.7,101.7c-0.7-0.2-1.4-0.2-2-0.4c-2.2-0.8-4.4-1.4-6.5-2.4c-3-1.4-5.9-3-8.3-5.2c-2.3-2-4.2-4.4-5.7-7.1
		c-0.8-1.4-1.7-2.6-2.5-3.9c-0.1-0.2-0.1-0.3-0.2-0.4c0.2,0,0.3-0.1,0.4-0.1c2,0.1,4,0.5,5.9,1.2c3.9,1.4,7.4,3.6,10.4,6.3
		c2.2,2,4,4.2,5.5,6.6c0.9,1.6,1.7,3.3,2.5,5C28.6,101.4,28.6,101.4,28.7,101.7z"/>
	<path d="M136.6,3.5c0.4,0.6,0.8,1.3,1.3,1.9c1.5,2.3,2.6,4.8,3.5,7.4c0.4,1.3,0.6,2.7,0.9,4c0.6,2.7,0.7,5.4,0.4,8.2
		c-0.3,3.3-1,6.5-2.6,9.4c-0.3,0.4-0.3,0.4-0.6,0.1c-1.4-1.8-2.4-3.7-3.1-5.8c-0.9-2.5-1.6-4.9-1.9-7.6c-0.3-2.5-0.5-5-0.2-7.6
		c0.3-2,0.6-4.2,1-6.2c0.3-1.3,0.8-2.5,1.1-3.8C136.5,3.5,136.5,3.5,136.6,3.5z"/>
	<path d="M23.1,72.6c-0.3-3,0.1-5.9,0.8-8.8c1.5-6.4,4.9-11.4,10.5-14.9c0.3-0.2,0.5-0.3,0.8-0.3c0.4-0.2,0.7,0,0.7,0.4
		c0.1,0.5,0.1,1.1,0.1,1.6c-0.3,1.9-0.4,3.7-0.8,5.5c-0.3,1.9-0.8,3.8-1.4,5.6c-1.5,4.8-4.2,8.8-7.8,12.1c-0.8,0.7-1.4,1.4-2.2,2.1
		c-0.1,0.1-0.3,0.2-0.5,0.2c0-0.2-0.1-0.3-0.1-0.4C23.1,74.7,23.1,73.7,23.1,72.6z"/>
	<path d="M23.4,88.8c-0.8-0.4-1.5-0.8-2.2-1.3c-3-2.1-5.9-4.3-8.2-7.3c-2-2.8-3.8-5.6-4.9-8.8c-0.4-1.3-0.7-2.6-1-3.9
		c-0.3-1.4-0.7-2.8-1-4.2C6,63.1,6,63,6,62.7l0.1-0.1c0.6,0.3,1.3,0.5,1.9,0.8c1.8,0.9,3.6,1.9,5,3.3c1.1,1.1,2,2.4,3.1,3.5
		c2.9,2.9,4.5,6.5,5.9,10.3c0.8,2.5,1.5,4.9,1.7,7.6c0,0.2,0,0.4,0,0.6C23.6,88.7,23.5,88.7,23.4,88.8z"/>
	<path d="M6.6,42.2c0.3,0.1,0.4,0.2,0.6,0.3c1.6,1.3,3.2,2.5,4.7,3.9c2.9,2.8,5.2,6.1,6.8,9.9c1.1,2.6,2,5.4,2.1,8.2
		c0.1,1.7,0.1,3.3,0.1,5c0,0.6-0.2,0.7-0.7,0.3c-1.1-0.8-2.2-1.6-3.1-2.5c-2.9-2.8-5.4-5.9-7.1-9.6c-0.8-1.9-1.5-3.8-2.1-5.8
		c-0.9-3-1.1-6.1-1.3-9.2C6.6,42.6,6.6,42.4,6.6,42.2z"/>
	<path d="M119.4,25.9c0.5,0,0.8,0,1.3,0.1c5.3,0.8,9.9,3.1,14,6.3c1.8,1.4,3.2,3.1,4.8,4.8c1.6,1.5,2.7,3.5,3.8,5.4
		c0.3,0.5,0.6,1.1,0.9,1.7c0.1,0.2,0.1,0.3,0.1,0.5c-0.2,0-0.3,0.1-0.5,0.1c-1.7-0.4-3.5-0.7-5.1-1.2c-3.5-1.1-6.7-2.7-9.6-5
		c-3.2-2.5-6.1-5.4-8.2-9c-0.5-0.9-1-2-1.4-2.9C119.5,26.4,119.5,26.2,119.4,25.9z"/>
	<path d="M117.4,5.5c0.3,0.1,0.7,0.2,1,0.4c5.6,2.9,9.8,7.1,12.7,12.7c0.9,1.9,2,3.8,2.5,5.9c0.4,1.4,0.7,2.9,1,4.3
		c0.2,0.7,0,0.8-0.7,0.5c-1-0.4-2-0.8-2.9-1.4c-5.4-3.1-9.1-7.8-11.6-13.3c-1-2.1-1.7-4.2-2.2-6.5c-0.2-0.7-0.3-1.4-0.4-2
		C116.7,5.7,116.9,5.5,117.4,5.5z"/>
</g>
</svg>
